<svg width="46" height="46" viewBox="0 0 46 46" fill="none" xmlns="http://www.w3.org/2000/svg">
<mask id="mask0" mask-type="alpha" maskUnits="userSpaceOnUse" x="3" y="7" width="38" height="33">
<path d="M32.3568 32.0287C34.3684 32.0287 36.0097 33.6645 36.0097 35.6816C36.0097 37.6987 34.374 39.3345 32.3568 39.3345C30.3397 39.3345 28.704 37.6987 28.704 35.6816C28.704 33.6645 30.3453 32.0287 32.3568 32.0287ZM18.7787 32.0232C20.7958 32.0232 22.4316 33.6589 22.4316 35.6761C22.4316 37.6932 20.7958 39.3289 18.7787 39.3289C16.7616 39.3289 15.1258 37.6876 15.1258 35.6761C15.1258 33.6645 16.7616 32.0232 18.7787 32.0232ZM18.7787 34.2337C17.9829 34.2337 17.3363 34.8803 17.3363 35.6761C17.3363 36.4718 17.9829 37.1184 18.7787 37.1184C19.5745 37.1184 20.2211 36.4718 20.2211 35.6761C20.2211 34.8858 19.5745 34.2337 18.7787 34.2337ZM32.3568 34.2337C31.5611 34.2337 30.9145 34.8803 30.9145 35.6761C30.9145 36.4718 31.5611 37.1184 32.3568 37.1184C33.1526 37.1184 33.7992 36.4718 33.7992 35.6761C33.7992 34.8803 33.1526 34.2337 32.3568 34.2337ZM6.57106 7C7.31158 7 7.98579 7.43658 8.28974 8.11079L8.31185 8.17158L15.7613 28H35.4737C36.0816 28 36.579 28.4974 36.579 29.1053C36.579 29.7132 36.0816 30.2105 35.4737 30.2105H15.5237C14.7832 30.2105 14.109 29.7739 13.8105 29.0997L13.7884 29.0389L6.33895 9.21053H4.43696C3.82906 9.21053 3.3317 8.71316 3.3317 8.10526C3.3317 7.49737 3.82906 7 4.43696 7H6.57106ZM38.7563 11.4211C39.3808 11.4211 39.9611 11.7305 40.3037 12.2445C40.6518 12.7474 40.7237 13.3884 40.5082 13.9576L36.6895 25.1595C36.4021 25.8724 35.7224 26.3366 34.9487 26.3366H18.8616C18.0879 26.3366 17.4082 25.8779 17.1208 25.1595L12.7605 13.9853C12.534 13.4105 12.6058 12.7584 12.954 12.2445C13.3021 11.7305 13.8824 11.4211 14.5068 11.4211H38.7563Z" fill="white"/>
</mask>
<g mask="url(#mask0)">
<path d="M32.3568 32.0287C34.3684 32.0287 36.0097 33.6645 36.0097 35.6816C36.0097 37.6987 34.374 39.3345 32.3568 39.3345C30.3397 39.3345 28.704 37.6987 28.704 35.6816C28.704 33.6645 30.3453 32.0287 32.3568 32.0287ZM18.7787 32.0232C20.7958 32.0232 22.4316 33.6589 22.4316 35.6761C22.4316 37.6932 20.7958 39.3289 18.7787 39.3289C16.7616 39.3289 15.1258 37.6876 15.1258 35.6761C15.1258 33.6645 16.7616 32.0232 18.7787 32.0232ZM18.7787 34.2337C17.9829 34.2337 17.3363 34.8803 17.3363 35.6761C17.3363 36.4718 17.9829 37.1184 18.7787 37.1184C19.5745 37.1184 20.2211 36.4718 20.2211 35.6761C20.2211 34.8858 19.5745 34.2337 18.7787 34.2337ZM32.3568 34.2337C31.5611 34.2337 30.9145 34.8803 30.9145 35.6761C30.9145 36.4718 31.5611 37.1184 32.3568 37.1184C33.1526 37.1184 33.7992 36.4718 33.7992 35.6761C33.7992 34.8803 33.1526 34.2337 32.3568 34.2337ZM6.57106 7C7.31158 7 7.98579 7.43658 8.28974 8.11079L8.31185 8.17158L15.7613 28H35.4737C36.0816 28 36.579 28.4974 36.579 29.1053C36.579 29.7132 36.0816 30.2105 35.4737 30.2105H15.5237C14.7832 30.2105 14.109 29.7739 13.8105 29.0997L13.7884 29.0389L6.33895 9.21053H4.43696C3.82906 9.21053 3.3317 8.71316 3.3317 8.10526C3.3317 7.49737 3.82906 7 4.43696 7H6.57106ZM38.7563 11.4211C39.3808 11.4211 39.9611 11.7305 40.3037 12.2445C40.6518 12.7474 40.7237 13.3884 40.5082 13.9576L36.6895 25.1595C36.4021 25.8724 35.7224 26.3366 34.9487 26.3366H18.8616C18.0879 26.3366 17.4082 25.8779 17.1208 25.1595L12.7605 13.9853C12.534 13.4105 12.6058 12.7584 12.954 12.2445C13.3021 11.7305 13.8824 11.4211 14.5068 11.4211H38.7563Z" fill="#008CBE"/>
</g>
</svg>
