<?xml version="1.0" encoding="UTF-8"?>
<svg width="111px" height="94px" viewBox="0 0 111 94" version="1.1" xmlns="http://www.w3.org/2000/svg" xmlns:xlink="http://www.w3.org/1999/xlink">
    <title>Group 29</title>
    <defs>
        <polygon id="path-1" points="0.7694 0.7784 13.098 0.7784 13.098 13.1064 0.7694 13.1064"></polygon>
        <polygon id="path-3" points="0.467759608 0.831 4.88177246 0.831 4.88177246 7.44421148 0.467759608 7.44421148"></polygon>
    </defs>
    <g id="Home-" stroke="none" stroke-width="1" fill="none" fill-rule="evenodd">
        <g id="Minicart-vacío" transform="translate(-1034.000000, -259.000000)">
            <g id="Group-29" transform="translate(1034.000000, 259.000000)">
                <path d="M89.2016,42.1 L82.7166,67.173 C82.1526,69.358 80.1806,70.8850039 77.9236,70.8850039 L46.4156,70.8850039 C44.0206,70.888 41.9666,69.175 41.5396,66.818 L37.0516,42.067 L89.2016,42.1 Z M34.2296,26.491 C34.0846,25.697 33.3866,25.124 32.5796,25.1377489 L21.4426,25.1377489 C20.5306,25.1377489 19.7916,25.876 19.7916,26.787 C19.7916,27.699 20.5306,28.438 21.4426,28.438 L31.2266,28.438 L33.4466,40.664 C33.4436,40.722 33.4436,40.78 33.4466,40.838 L38.2976,67.404 C39.0116,71.327 42.4286,74.178 46.4156,74.1770003 L77.9236,74.1770003 C81.6826,74.1770003 84.9666,71.636 85.9096,67.997 L92.9306,40.863 C93.1586,39.98 92.6276,39.08 91.7456,38.852 C91.6096,38.817 91.4706,38.8 91.3296,38.8 L36.4656,38.8 L34.2296,26.491 Z" id="Fill-1" fill="#898989"></path>
                <path d="M43.4042,85.8841 C43.4042,83.6831 45.1882,81.8991 47.3892,81.8991 C49.5902,81.8991 51.3742,83.6831 51.3742,85.8841 C51.3742,88.0851 49.5902,89.8691 47.3892,89.8691 C45.1872,89.8691 43.4012,88.0861 43.3962,85.8841 L43.4042,85.8841 Z M54.6742,85.8841 C54.6742,81.8611 51.4122,78.5991 47.3892,78.5991 C43.3652,78.5991 40.1042,81.8611 40.1042,85.8841 C40.1042,89.9071 43.3652,93.1691 47.3892,93.1691 C51.4102,93.1641 54.6702,89.9051 54.6742,85.8841 L54.6742,85.8841 Z" id="Fill-3" fill="#898989"></path>
                <path d="M70.7787,85.8841 C70.7787,83.6831 72.5627,81.8991 74.7637,81.8991 C76.9647,81.8991 78.7487,83.6831 78.7487,85.8841 C78.7487,88.0851 76.9647,89.8691 74.7637,89.8691 C72.5617,89.8691 70.7747,88.0861 70.7707,85.8841 L70.7787,85.8841 Z M82.0487,85.8841 C82.0487,81.8611 78.7867,78.5991 74.7637,78.5991 C70.7397,78.5991 67.4787,81.8611 67.4787,85.8841 C67.4787,89.9071 70.7397,93.1691 74.7637,93.1691 C78.7847,93.1641 82.0437,89.9051 82.0487,85.8841 L82.0487,85.8841 Z" id="Fill-5" fill="#898989"></path>
                <g id="Group-9" transform="translate(97.000000, 62.169100)">
                    <mask id="mask-2" fill="white">
                        <use xlink:href="#path-1"></use>
                    </mask>
                    <g id="Clip-8"></g>
                    <path d="M9.4984,6.9704 C9.4984,6.2694 9.2244,5.5994 8.7654,5.1404 C8.3064,4.6814 7.6354,4.3774 6.9354,4.3774 C6.2314,4.3774 5.5914,4.6814 5.1324,5.1404 C4.6764,5.5984 4.3704,6.2694 4.3704,6.9704 C4.3704,7.6734 4.6764,8.3144 5.1324,8.7734 C5.5914,9.2294 6.2314,9.5034 6.9354,9.5034 C7.6354,9.5034 8.3064,9.2294 8.7344,8.7734 C9.2244,8.3144 9.4984,7.6734 9.4984,6.9704 L9.4984,6.9704 Z M11.3584,2.6704 C12.4574,3.7664 13.0984,5.2924 13.0984,6.9704 C13.0984,8.6514 12.4274,10.1774 11.2984,11.3064 L11.2364,11.3664 C10.1394,12.4654 8.6134,13.1064 6.9354,13.1064 C5.2544,13.1064 3.6994,12.4324 2.6024,11.3064 L2.5404,11.2444 C1.4404,10.1444 0.7694,8.6184 0.7694,6.9704 C0.7694,5.2624 1.4704,3.7074 2.5694,2.6074 L2.6324,2.5484 C3.7584,1.4484 5.2844,0.7784 6.9354,0.7784 C8.6434,0.7784 10.1684,1.4784 11.2984,2.5774 L11.3584,2.6704 Z" id="Fill-7" fill="#5B0D2E" mask="url(#mask-2)"></path>
                </g>
                <path d="M99.7773,18.8031 C100.4723,19.2001 100.7193,20.1151 100.2983,20.8111 C100.1743,21.0341 100.0033,21.2081 99.7773,21.3321 L94.4463,24.4071 C93.7273,24.8291 92.8333,24.5821 92.4363,23.8861 C92.0393,23.1921 92.2613,22.3011 92.9833,21.8761 L96.1323,20.0671 L92.9833,18.2561 C92.2613,17.8341 92.0393,16.9431 92.4363,16.2471 C92.8333,15.5521 93.7273,15.3291 94.4463,15.7271 L99.7773,18.8031 Z" id="Fill-10" fill="#232541"></path>
                <path d="M58.7826,6.8246 C59.0266,7.7726 58.4486,8.7766 57.5016,9.0206 L54.2976,9.8766 C53.3206,10.1206 52.3456,9.5726 52.0706,8.5956 C51.8256,7.6506 52.4056,6.6426 53.3516,6.3986 L56.5866,5.5426 C57.5326,5.2986 58.5086,5.8466 58.7826,6.8246" id="Fill-12" fill="#232541"></path>
                <path d="M54.2973,14.576 C54.5423,15.554 53.9623,16.528 53.0163,16.772 C52.0703,17.05 51.0633,16.468 50.8193,15.524 L49.9643,12.38 C49.7203,11.402 50.3003,10.425 51.2463,10.183 C52.2233,9.906 53.1993,10.487 53.4423,11.465 L54.2973,14.576 Z" id="Fill-14" fill="#232541"></path>
                <g id="Group-18" transform="translate(47.000000, 0.169100)">
                    <mask id="mask-4" fill="white">
                        <use xlink:href="#path-3"></use>
                    </mask>
                    <g id="Clip-17"></g>
                    <path d="M4.8256,5.1921 C5.0706,6.1371 4.4906,7.1441 3.5446,7.3881 C2.5976,7.6331 1.5906,7.0521 1.3466,6.1071 L0.5236,3.0851 C0.2796,2.1411 0.8586,1.1331 1.8046,0.8891 C2.7816,0.6441 3.7566,1.1931 4.0016,2.1701 L4.8256,5.1921 Z" id="Fill-16" fill="#232541" mask="url(#mask-4)"></path>
                </g>
                <path d="M49.8124,9.2352 C50.0564,10.1832 49.4754,11.1572 48.5304,11.4322 L45.2644,12.2872 C44.2874,12.5612 43.3124,11.9832 43.0364,11.0352 C42.7924,10.0612 43.3724,9.0832 44.3184,8.8392 L47.6144,7.9542 C48.5614,7.7102 49.5364,8.2582 49.8124,9.2352" id="Fill-19" fill="#232541"></path>
                <path d="M17.8437,80.2899 C17.8437,79.9529 17.7217,79.6789 17.5087,79.4679 C17.2637,79.2519 16.9897,79.1299 16.6547,79.1299 C16.3477,79.1299 16.0437,79.2519 15.8287,79.4679 C15.6157,79.6789 15.4947,79.9529 15.4947,80.2899 C15.4947,80.6269 15.6157,80.9009 15.8287,81.1149 C16.0437,81.3269 16.3477,81.4489 16.6547,81.4489 C16.9897,81.4489 17.2637,81.3269 17.5087,81.1149 C17.7217,80.9009 17.8437,80.6269 17.8437,80.2899 M20.0417,76.9339 C20.8957,77.7569 21.4457,78.9779 21.4457,80.2899 C21.4457,81.6019 20.8947,82.8229 20.0417,83.6779 C19.1877,84.5299 17.9657,85.0819 16.6547,85.0819 C15.3417,85.0819 14.1507,84.5299 13.2957,83.6779 C12.4117,82.8229 11.8917,81.6019 11.8917,80.2899 C11.8917,78.9779 12.4117,77.7569 13.2957,76.9339 C14.1507,76.0489 15.3417,75.4979 16.6547,75.4979 C17.9657,75.4979 19.1877,76.0489 20.0417,76.9339" id="Fill-21" fill="#232541"></path>
                <polygon id="Fill-23" fill="#5B0D2E" points="6.8979 46.5546 3.4479 47.5586 2.4739 44.3256 5.9219 43.2886 6.8659 46.5216 10.3149 45.4846 11.2919 48.7516 7.8439 49.7586"></polygon>
                <polygon id="Fill-25" fill="#5B0D2E" points="7.8437 49.7587 8.8197 53.0217 5.3717 54.0287 4.4257 50.7957"></polygon>
                <polygon id="Fill-27" fill="#5B0D2E" points="3.4184 47.5589 4.3964 50.7959 0.9474 51.8319 0.0004 48.5999"></polygon>
            </g>
        </g>
    </g>
</svg>