<?xml version="1.0" encoding="UTF-8"?>
<svg width="22px" height="22px" viewBox="0 0 22 22" version="1.1" xmlns="http://www.w3.org/2000/svg" xmlns:xlink="http://www.w3.org/1999/xlink">
    <title>ICON/search</title>
    <defs>
        <path d="M16.9705076,3.50210597 C20.5555864,6.93900638 20.6808392,12.4520019 17.3462661,16.0339685 L21.7417697,20.4285714 L20.4285714,21.7417697 L15.9505525,17.2641241 C12.2488306,19.9281969 6.98221406,19.6452254 3.61387808,16.4152097 C-0.100987933,12.8538864 -0.100987933,7.06342925 3.6137848,3.50219541 C7.30563743,-0.0380518173 13.2777196,-0.0380518173 16.9705076,3.50210597 Z M4.89907906,4.84271704 C1.94680222,7.67297046 1.94680222,12.2443452 4.89917234,15.0746881 C7.87260543,17.9260175 12.7109518,17.9260175 15.6853067,15.0745986 C18.6375835,12.2443452 18.6375835,7.67297046 15.6853067,4.84271704 C12.7109518,1.99129811 7.87260543,1.99129811 4.89907906,4.84271704 Z" id="path-1"></path>
    </defs>
    <g id="Symbols" stroke="none" stroke-width="1" fill="none" fill-rule="evenodd">
        <g id="header" transform="translate(-930.000000, -15.000000)">
            <g id="Buscador-Copy" transform="translate(311.000000, 7.000000)">
                <g id="Group" transform="translate(617.000000, 6.000000)">
                    <g id="COLOR/primary/black/pressed" transform="translate(1.857143, 1.857143)">
                        <mask id="mask-2" fill="white">
                            <use xlink:href="#path-1"></use>
                        </mask>
                        <use id="Mask" fill="#000000" fill-rule="nonzero" xlink:href="#path-1"></use>
                        <g id="Group" mask="url(#mask-2)">
                            <g transform="translate(-1.857143, -1.857143)" id="COLOR/primary/black/pressed">
                                <rect id="Rectangle" fill="#FAFAFA" x="0" y="0" width="26" height="26"></rect>
                            </g>
                        </g>
                    </g>
                </g>
            </g>
        </g>
    </g>
</svg>