<?xml version="1.0" encoding="UTF-8"?>
<svg width="46px" height="46px" viewBox="0 0 46 46" version="1.1" xmlns="http://www.w3.org/2000/svg" xmlns:xlink="http://www.w3.org/1999/xlink">
    <title>Group 55</title>
    <defs>
        <path d="M12.7817658,24.7179758 C14.6201297,24.7179758 16.1104181,26.2082642 16.1104181,28.046628 C16.1083406,29.8841307 14.6192685,31.3732028 12.7817658,31.3752802 C10.943402,31.3752802 9.45311362,29.8849919 9.45311362,28.046628 C9.45311362,26.2082642 10.943402,24.7179758 12.7817658,24.7179758 Z M25.2896572,24.7179758 C27.1280211,24.7179758 28.6183094,26.2082642 28.6183094,28.046628 C28.616232,29.8841307 27.1271599,31.3732028 25.2896572,31.3752802 C23.4512933,31.3752802 21.961005,29.8849919 21.961005,28.046628 C21.961005,26.2082642 23.4512933,24.7179758 25.2896572,24.7179758 Z M12.7817658,26.225859 C11.7761829,26.225859 10.9609968,27.0410451 10.9609968,28.046628 L10.9609968,28.046628 C10.9593061,29.0528204 11.7755713,29.867397 12.7817658,29.867397 C13.7873488,29.867397 14.6025348,29.052211 14.6025348,28.046628 C14.6025348,27.0410451 13.7873488,26.225859 12.7817658,26.225859 Z M25.2896572,26.225859 C24.2840743,26.225859 23.4688882,27.0410451 23.4688882,28.046628 L23.4688882,28.046628 C23.4671974,29.0528204 24.2834626,29.867397 25.2896572,29.867397 C26.2952402,29.867397 27.1104262,29.052211 27.1104262,28.046628 C27.1104262,27.0410451 26.2952402,26.225859 25.2896572,26.225859 Z M6.01513986,0.290165907 C6.38382013,0.284253892 6.70275924,0.545783969 6.76908148,0.908499644 L6.76908148,0.908499644 L7.79067236,6.53290408 L32.859231,6.53290408 C33.092648,6.53249453 33.3130921,6.64022192 33.4561921,6.82462922 C33.5992922,7.00903653 33.6489091,7.24932576 33.5905544,7.4753311 L33.5905544,7.4753311 L30.3825328,19.8739009 C29.951428,21.5364661 28.4510043,22.6974123 26.7334554,22.6974123 L26.7334554,22.6974123 L12.3369403,22.6974123 C10.5150436,22.6976872 8.95366705,21.3949533 8.62754755,19.6024819 L8.62754755,19.6024819 L6.41095921,7.46402197 C6.40963266,7.43765069 6.40963266,7.41122939 6.41095921,7.3848581 L6.41095921,7.3848581 L5.39690774,1.79815075 L0.926033974,1.79815075 C0.509643519,1.79815075 0.172092361,1.46059959 0.172092361,1.04420913 C0.172092361,0.627818679 0.509643519,0.290165907 0.926033974,0.290165907 L0.926033974,0.290165907 Z M8.05832164,8.02570847 L10.1090428,19.3348327 C10.3042221,20.4117549 11.2424746,21.1944258 12.3369403,21.1933 L12.3369403,21.1933 L26.7334554,21.1933 C27.7649173,21.1933 28.6657903,20.4956388 28.9236558,19.4969301 L28.9236558,19.4969301 L31.8866463,8.04078731 L8.05832164,8.02570847 Z" id="path-1"></path>
    </defs>
    <g id="Symbols" stroke="none" stroke-width="1" fill="none" fill-rule="evenodd">
        <g id="Group-55">
            <g id="COLOR/white-Copy" transform="translate(6.000000, 7.000000)">
                <mask id="mask-2" fill="white">
                    <use xlink:href="#path-1"></use>
                </mask>
                <use id="Mask" fill="#FFFFFF" fill-rule="nonzero" xlink:href="#path-1"></use>
                <g id="Group" mask="url(#mask-2)">
                    <g transform="translate(-6.000000, -7.000000)" id="COLOR/white">
                        <rect id="Rectangle" fill="#FFFFFF" x="0" y="0" width="46" height="46"></rect>
                    </g>
                </g>
            </g>
            <rect id="Rectangle-Copy" x="0" y="0" width="46" height="46"></rect>
        </g>
    </g>
</svg>