<?xml version="1.0" encoding="UTF-8"?>
<svg width="46px" height="46px" viewBox="0 0 46 46" version="1.1" xmlns="http://www.w3.org/2000/svg" xmlns:xlink="http://www.w3.org/1999/xlink">
    <title>Group 44</title>
    <defs>
        <path d="M12,15.1 C18.6,15.1 24,20.4 24,27.1 C24,27.5 23.7,27.9 23.3,28 C19.7,29.3 15.9,30 12,30 C8.2,30 4.3,29.3 0.7,28 C0.3,27.9 0,27.5 0,27.1 C0,20.5 5.4,15.1 12,15.1 Z M12.7,16.7 C6.8,16.2 1.6,20.7 1.2,26.7 C8.2,29 15.8,29 22.7,26.7 C22.4,21.4 18.1,17.1 12.7,16.7 Z M12,0 C15.6,0 18.5,2.9 18.5,6.5 C18.5,10.1 15.6,13 12,13 C8.4,13 5.5,10.1 5.5,6.5 C5.5,2.9 8.4,0 12,0 Z M12,1.5 C9.2,1.5 7,3.7 7,6.5 C7,9.2 9.3,11.5 12,11.5 C14.7,11.5 17,9.2 17,6.5 C17,3.8 14.8,1.5 12,1.5 Z" id="path-1"></path>
    </defs>
    <g id="Symbols" stroke="none" stroke-width="1" fill="none" fill-rule="evenodd">
        <g id="Group-44">
            <g id="COLOR/white-Copy" transform="translate(11.000000, 8.000000)">
                <mask id="mask-2" fill="white">
                    <use xlink:href="#path-1"></use>
                </mask>
                <use id="Mask" fill="#FFFFFF" fill-rule="nonzero" xlink:href="#path-1"></use>
                <g id="Group" mask="url(#mask-2)">
                    <g transform="translate(-11.000000, -8.000000)" id="COLOR/white">
                        <rect id="Rectangle" fill="#FFFFFF" x="0" y="0" width="46" height="46"></rect>
                    </g>
                </g>
            </g>
            <rect id="Rectangle-Copy" x="0" y="0" width="46" height="46"></rect>
        </g>
    </g>
</svg>