<?xml version="1.0" encoding="UTF-8"?>
<svg width="57px" height="57px" viewBox="0 0 57 57" version="1.1" xmlns="http://www.w3.org/2000/svg" xmlns:xlink="http://www.w3.org/1999/xlink">
    <title>Group 44</title>
    <defs>
        <polygon id="path-1" points="0.3002 0.242 40.922 0.242 40.922 27.459 0.3002 27.459"></polygon>
    </defs>
    <g id="Symbols" stroke="none" stroke-width="1" fill="none" fill-rule="evenodd">
        <g id="Group-44">
            <g id="Group-12-Copy" transform="translate(3.000000, 9.000000)">
                <g id="Group-3" transform="translate(7.000000, 0.758500)">
                    <mask id="mask-2" fill="white">
                        <use xlink:href="#path-1"></use>
                    </mask>
                    <g id="Clip-2"></g>
                    <path d="M38.8232,9.656 L35.2242,23.572 C34.9112,24.785 33.8172,25.6320031 32.5642,25.6320031 L15.0762,25.6320031 C13.7472,25.634 12.6082,24.683 12.3702,23.375 L9.8802,9.638 L38.8232,9.656 Z M8.3132,0.992 C8.2332,0.552 7.8452,0.234 7.3982,0.240886668 L1.2162,0.240886668 C0.7102,0.240886668 0.3002,0.652 0.3002,1.157 C0.3002,1.663 0.7102,2.073 1.2162,2.073 L6.6472,2.073 L7.8792,8.859 C7.8772,8.891 7.8772,8.924 7.8792,8.955 L10.5712,23.7 C10.9672,25.877 12.8642,27.459 15.0762,27.459 L32.5642,27.459 C34.6502,27.459 36.4722,26.049 36.9962,24.03 L40.8932,8.969 C41.0192,8.479 40.7252,7.98 40.2352,7.854 C40.1602,7.834 40.0822,7.824 40.0052,7.824 L9.5542,7.824 L8.3132,0.992 Z" id="Fill-1" fill="#5B0D2E" mask="url(#mask-2)"></path>
                </g>
                <path d="M20.4053,34.7153 C20.4053,33.4933 21.3953,32.5033 22.6173,32.5033 C23.8383,32.5033 24.8283,33.4933 24.8283,34.7153 C24.8283,35.9363 23.8383,36.9263 22.6173,36.9263 C21.3953,36.9263 20.4033,35.9373 20.4013,34.7153 L20.4053,34.7153 Z M26.6603,34.7153 C26.6603,32.4823 24.8503,30.6723 22.6173,30.6723 C20.3843,30.6723 18.5733,32.4823 18.5733,34.7153 C18.5733,36.9483 20.3843,38.7583 22.6173,38.7583 C24.8493,38.7563 26.6573,36.9473 26.6603,34.7153 L26.6603,34.7153 Z" id="Fill-4" fill="#5B0D2E"></path>
                <path d="M35.5986,34.7153 C35.5986,33.4933 36.5886,32.5033 37.8096,32.5033 C39.0316,32.5033 40.0216,33.4933 40.0216,34.7153 C40.0216,35.9363 39.0316,36.9263 37.8096,36.9263 C36.5876,36.9263 35.5966,35.9373 35.5946,34.7153 L35.5986,34.7153 Z M41.8536,34.7153 C41.8536,32.4823 40.0436,30.6723 37.8096,30.6723 C35.5776,30.6723 33.7666,32.4823 33.7666,34.7153 C33.7666,36.9483 35.5776,38.7583 37.8096,38.7583 C40.0416,38.7563 41.8506,36.9473 41.8536,34.7153 L41.8536,34.7153 Z" id="Fill-6" fill="#5B0D2E"></path>
                <path d="M12.1802,19.5439 L4.1002,19.5439 C3.6032,19.5439 3.2002,19.1409 3.2002,18.6439 C3.2002,18.1469 3.6032,17.7439 4.1002,17.7439 L12.1802,17.7439 C12.6772,17.7439 13.0802,18.1469 13.0802,18.6439 C13.0802,19.1409 12.6772,19.5439 12.1802,19.5439" id="Fill-8" fill="#5B0D2E"></path>
                <path d="M13.1802,25.9228 L0.9002,25.9228 C0.4032,25.9228 0.0002,25.5198 0.0002,25.0228 C0.0002,24.5258 0.4032,24.1228 0.9002,24.1228 L13.1802,24.1228 C13.6772,24.1228 14.0802,24.5258 14.0802,25.0228 C14.0802,25.5198 13.6772,25.9228 13.1802,25.9228" id="Fill-10" fill="#5B0D2E"></path>
            </g>
            <rect id="Rectangle-Copy" x="0" y="0" width="57" height="57"></rect>
        </g>
    </g>
</svg>