<?xml version="1.0" encoding="UTF-8"?>
<svg width="57px" height="57px" viewBox="0 0 57 57" version="1.1" xmlns="http://www.w3.org/2000/svg" xmlns:xlink="http://www.w3.org/1999/xlink">
    <title>Group 57</title>
    <g id="Symbols" stroke="none" stroke-width="1" fill="none" fill-rule="evenodd">
        <g id="Group-57">
            <g id="Group-9-Copy" transform="translate(10.000000, 10.000000)" fill="#5B0D2E">
                <path d="M24.1136,23.2497 C23.8356,23.5377 23.4516,23.6987 23.0516,23.6957 C22.2226,23.6867 21.5526,23.0167 21.5436,22.1877 C21.5496,21.3557 22.2196,20.6827 23.0516,20.6736816 C23.4526,20.6717 23.8386,20.8327 24.1196,21.1197 C24.3986,21.4037 24.5506,21.7887 24.5416,22.1877 C24.5506,22.5847 24.3956,22.9697 24.1136,23.2497 M25.4336,19.7987 C24.1136,18.4827 21.9776,18.4857 20.6616,19.8057 C20.0326,20.4367 19.6786,21.2907 19.6766,22.1817 C19.6986,24.0367 21.1966,25.5367 23.0516,25.5617 C24.9146,25.5617 26.4256,24.0497 26.4246005,22.1867 C26.4246005,21.2907 26.0676,20.4317 25.4336,19.7987" id="Fill-1"></path>
                <path d="M15.3578,14.57 C15.0778,14.856 14.6948,15.017 14.2958,15.0160046 C13.4708,14.997 12.8108,14.327 12.8047989,13.502 C12.8038,12.669 13.4778,11.993 14.3108,11.9909989 C15.1438,11.99 15.8198,12.664 15.8208047,13.497 C15.8218,13.9 15.6618,14.286 15.3758,14.57 L15.3578,14.57 Z M16.6778,11.12 C15.3588,9.804 13.2218,9.807 11.9058,11.127 C11.2768,11.757 10.9228,12.612 10.9208,13.502 C10.9428,15.358 12.4408,16.857 14.2958,16.883 C16.1588,16.882 17.6698,15.371 17.6688005,13.507 C17.6688005,12.611 17.3128,11.752 16.6778,11.12 L16.6778,11.12 Z" id="Fill-3"></path>
                <path d="M25.9383,10.5857 L25.9383,10.5857 C25.7383,10.3907 25.4663,10.2887 25.1873,10.3037 C24.9263,10.2967 24.6743,10.3967 24.4893,10.5797 L11.4083,23.6547 C11.2233,23.8447 11.1193,24.0997 11.1212717,24.3647 C11.1283,24.6407 11.2413,24.9037 11.4383,25.0987 C11.6263,25.2747 11.8773,25.3717 12.1363,25.367819 C12.4053,25.3717 12.6673,25.2707 12.8633,25.0867 L25.9383,12.0117 C26.3193,11.6127 26.3193,10.9847 25.9383,10.5857" id="Fill-5"></path>
                <path d="M13.5384,1.7595 C13.5094,1.7545 13.4794,1.7545 13.4504,1.7595 C13.3684,1.7845 13.3024,1.8475 13.2744,1.9295 L11.5144,7.0885 C11.3944,7.4375 11.0674,7.6725 10.6984,7.6755 L5.2464,7.7745 C5.1584,7.7765 5.0754,7.8205 5.0234,7.8915 C4.9724,7.9615 4.9564,8.0505 4.9824,8.1325 L6.5724,13.3555 C6.6814,13.7155 6.5494,14.1045 6.2444,14.3235 L1.8904,17.6215 C1.7664,17.7115 1.7394,17.8845 1.8294,18.0075 C1.8464,18.0305 1.8664,18.0515 1.8904,18.0675 L6.2444,21.3655 C6.5374,21.5885 6.6624,21.9695 6.5554,22.3225 L4.9644,27.5455 C4.9424,27.6275 4.9574,27.7155 5.0054,27.7855 C5.0594,27.8565 5.1414,27.8985 5.2284,27.9035 L10.6804,28.0035 C11.0494,28.0055 11.3764,28.2405 11.4964,28.5905 L13.2564,33.7485 C13.2854,33.8295 13.3504,33.8935 13.4334,33.9185 C13.5164,33.9485 13.6084,33.9355 13.6794,33.8835 L18.1684,30.7555 C18.4714,30.5435 18.8744,30.5435 19.1784,30.7555 L23.6494,33.8835 C23.7214,33.9355 23.8134,33.9485 23.8964,33.9185 C23.9784,33.8935 24.0444,33.8295 24.0724,33.7485 L25.8324,28.5905 C25.9524,28.2405 26.2794,28.0055 26.6484,28.0035 L32.1004,27.9035 C32.1884,27.8985 32.2694,27.8565 32.3234,27.7855 C32.3744,27.7175 32.3904,27.6275 32.3644,27.5455 L30.7744,22.3225 C30.6714,21.9665 30.8024,21.5835 31.1024,21.3655 L35.4564,18.0795 C35.5804,17.9895 35.6074,17.8175 35.5174,17.6945 C35.5004,17.6715 35.4804,17.6505 35.4564,17.6335 L31.1024,14.3235 C30.8094,14.1015 30.6844,13.7195 30.7914,13.3675 L32.3824,8.1445 C32.4044,8.0615 32.3894,7.9745 32.3414,7.9035 C32.2894,7.8315 32.2064,7.7885 32.1184,7.7865 L26.6664,7.6865 C26.2974,7.6845 25.9704,7.4485 25.8504,7.0995 L24.0904,1.9415 C24.0614,1.8595 23.9964,1.7965 23.9134,1.7715 C23.8304,1.7405 23.7384,1.7545 23.6674,1.8065 L19.1784,4.9345 C18.8744,5.1465 18.4714,5.1465 18.1684,4.9345 L13.6974,1.8125 C13.6514,1.7785 13.5954,1.7595 13.5384,1.7595 L13.5384,1.7595 Z M23.8084,35.6905508 C23.3884,35.6935 22.9774,35.5635 22.6344,35.3215 L18.6734,32.5455 L14.7064,35.3215 C13.7794,35.9585 12.5124,35.7235 11.8744,34.7965 C11.7724,34.6485 11.6904,34.4875 11.6314,34.3175 L10.0524,29.7395 L5.1764,29.6525 C4.0484,29.6295 3.1524,28.6965 3.1754,27.5695 C3.1794,27.3825 3.2084,27.1965 3.2634,27.0175 L4.6714,22.3865 L0.8094,19.4525 C-0.0876,18.7755 -0.2666,17.4985 0.4114,16.6005 C0.5244,16.4495 0.6594,16.3155 0.8094,16.2015 L4.6714,13.2675 L3.2634,8.6315 C2.9554,7.5505 3.5814,6.4235 4.6634,6.1145 C4.8304,6.0675 5.0024,6.0415 5.1764,6.0375 L10.0174,5.9495 L11.6314,1.3725 C11.9984,0.3095 13.1574,-0.2555 14.2214,0.1125 C14.3994,0.1735 14.5694,0.2595 14.7244,0.3685 L18.6734,3.1735 L22.6404,0.3985 C23.5634,-0.2435 24.8324,-0.0155 25.4754,0.9075 C25.5744,1.0515 25.6554,1.2075 25.7154,1.3725 L27.2944,5.9495 L32.1354,6.0375 C33.2634,6.0605 34.1594,6.9925 34.1364,8.1205 C34.1324,8.3075 34.1024,8.4935 34.0484,8.6725 L32.6404,13.3025 L36.5014,16.2375 C37.3994,16.9145 37.5784,18.1915 36.9004,19.0895 C36.7874,19.2395 36.6524,19.3745 36.5014,19.4885 L32.6404,22.4225 L34.0484,27.0525 C34.3574,28.1365 33.7284,29.2665 32.6434,29.5755 C32.4894,29.6195 32.3304,29.6455 32.1704,29.6525 L27.3294,29.7395 L25.7154,34.3175 C25.4324,35.1385 24.6594,35.6905508 23.7904,35.6905508 L23.8084,35.6905508 Z" id="Fill-7"></path>
            </g>
            <rect id="Rectangle-Copy" x="0" y="0" width="57" height="57"></rect>
        </g>
    </g>
</svg>