<?xml version="1.0" encoding="UTF-8"?>
<svg width="57px" height="57px" viewBox="0 0 57 57" version="1.1" xmlns="http://www.w3.org/2000/svg" xmlns:xlink="http://www.w3.org/1999/xlink">
    <title>Group 55</title>
    <defs>
        <polygon id="path-1" points="0 0.7 37.18 0.7 37.18 27.9999 0 27.9999"></polygon>
    </defs>
    <g id="Symbols" stroke="none" stroke-width="1" fill="none" fill-rule="evenodd">
        <g id="Group-55">
            <g id="Group-8-Copy" transform="translate(10.000000, 14.000000)">
                <g id="Group-5" transform="translate(0.000000, 0.299800)">
                    <mask id="mask-2" fill="white">
                        <use xlink:href="#path-1"></use>
                    </mask>
                    <g id="Clip-4"></g>
                    <path d="M35.3716,4.6299 L35.3716,7.2619 L1.8086,7.2619 L1.8086,4.6299 C1.8086,3.4409 2.7426,2.5079 3.9336,2.5079 L33.2456,2.5079 C34.4376,2.5079 35.3716,3.4409 35.3716,4.6299 L35.3716,4.6299 Z M1.8086,11.8309 L35.3716,11.8309 L35.3716,9.0719 L1.8086,9.0719 L1.8086,11.8309 Z M35.3716,13.6389 L35.3716,24.0669 C35.3716,25.2579 34.4376,26.1919 33.2456,26.1919 L3.9336,26.1919 C2.7426,26.1919 1.8086,25.2579 1.8086,24.0669 L1.8086,13.6389 L35.3716,13.6389 Z M33.2456,0.6999 L3.9336,0.6999 C1.7646,0.6999 -0.0004,2.4629 -0.0004,4.6299 L-0.0004,24.0669 C-0.0004,26.2349 1.7646,27.9999 3.9336,27.9999 L33.2456,27.9999 C35.4146,27.9999 37.1806,26.2349 37.1806,24.0669 L37.1806,4.6299 C37.1806,2.4629 35.4146,0.6999 33.2456,0.6999 L33.2456,0.6999 Z" id="Fill-3" fill="#5B0D2E" mask="url(#mask-2)"></path>
                </g>
                <path d="M5.5615,19.0688 L13.7995,19.0688 C14.0415,19.0638 14.2665,18.9648 14.4335,18.7898 C14.6005,18.6148 14.6895,18.3858 14.6845,18.1448 C14.6735,17.6588 14.2845,17.2708 13.7945,17.2608 L5.5645,17.2608 C5.3245,17.2548 5.0955,17.3438 4.9215,17.5108 C4.7475,17.6778 4.6475,17.9028 4.6425,18.1448 C4.6375,18.3858 4.7265,18.6148 4.8935,18.7898 C5.0605,18.9648 5.2855,19.0638 5.5615,19.0688" id="Fill-1" fill="#5B0D2E"></path>
                <path d="M5.5615,23.0996 L9.0715,23.0996 L9.0935,23.0996 C9.3265,23.0996 9.5475,23.0116 9.7165,22.8496 C9.8915,22.6826 9.9905,22.4566 9.9965,22.2156 C10.0065,21.7166 9.6105,21.3026 9.0775,21.2916 L5.5635,21.2916 C5.3325,21.2996 5.0965,21.3756 4.9215,21.5416 C4.7475,21.7086 4.6475,21.9336 4.6425,22.1756 C4.6315,22.6746 5.0285,23.0886 5.5615,23.0996" id="Fill-6" fill="#5B0D2E"></path>
            </g>
            <rect id="Rectangle-Copy" x="0" y="0" width="57" height="57"></rect>
        </g>
    </g>
</svg>