<?xml version="1.0" encoding="UTF-8"?>
<svg width="112px" height="46px" viewBox="0 0 112 46" version="1.1" xmlns="http://www.w3.org/2000/svg" xmlns:xlink="http://www.w3.org/1999/xlink">
    <title>F4757326-9330-440E-9C54-34CBAE5B7781</title>
    <g id="Home-" stroke="none" stroke-width="1" fill="none" fill-rule="evenodd">
        <g id="Home-Desktop" transform="translate(-68.000000, -11.000000)" fill="#FFFFFF" fill-rule="nonzero">
            <g id="Header-1-con-selector-de-sucursal" transform="translate(0.000000, -2.000000)">
                <g id="ICON/logo-Copy" transform="translate(68.000000, 13.000000)">
                    <rect id="Rectangle" x="16.6186541" y="28.52" width="80.3234947" height="1"></rect>
                    <polygon id="Path" points="22.1451212 43.2450724 19.9600486 35.88 18.4651712 35.88 21.5857688 46 22.7044736 46 25.8512397 35.88 24.3301937 35.88"></polygon>
                    <rect id="Rectangle" x="28.6210153" y="35.88" width="1.84651712" height="10.12"></rect>
                    <polygon id="Path" points="40.982539 42.9870159 36.446107 35.88 35.0838253 35.88 35.0838253 46 36.57118 46 36.57118 38.8790351 41.1042317 46 42.4698937 46 42.4698937 35.88 40.982539 35.88"></polygon>
                    <path d="M53.4918608,36.9433861 C52.7753066,36.2443525 51.7942413,35.8603161 50.7774166,35.8808215 C49.7656879,35.8597654 48.7898812,36.2442497 48.0806677,36.9433861 C47.0720411,37.92026 47.0861919,39.0239561 47.0861919,40.94 C47.0861919,42.8560439 47.0861919,43.95974 48.0806677,44.9366139 C48.7898812,45.6357503 49.7656879,46.0202346 50.7774166,45.9991785 C51.7942413,46.0196839 52.7753066,45.6356475 53.4918608,44.9366139 C54.5004873,43.95974 54.472175,42.8560439 54.472175,40.94 C54.472175,39.0239561 54.5004873,37.9373982 53.4918608,36.9433861 Z M52.2992041,44.0282925 C51.4547866,44.8459669 50.0858905,44.8459669 49.241473,44.0282925 C48.7353902,43.4970102 48.6362971,42.9383069 48.6362971,40.9434276 C48.6362971,38.9485483 48.7353902,38.3864174 49.241473,37.8585627 C50.0858905,37.0408883 51.4547866,37.0408883 52.2992041,37.8585627 C52.8052869,38.389845 52.90438,38.9485483 52.90438,40.9434276 C52.90438,42.9383069 52.812365,43.4970102 52.2992041,44.0282925 Z" id="Shape"></path>
                    <polygon id="Path" points="57.2420307 37.2609511 60.1377465 37.2609511 60.1377465 46 61.7323834 46 61.7323834 37.2609511 64.6280992 37.2609511 64.6280992 35.88 57.2420307 35.88"></polygon>
                    <polygon id="Path" points="68.3211334 46 74.7839433 46 74.7839433 44.6225362 69.854091 44.6225362 69.854091 41.5781668 74.0592725 41.5781668 74.0592725 40.214652 69.854091 40.214652 69.854091 37.2609511 74.7839433 37.2609511 74.7839433 35.88 68.3211334 35.88"></polygon>
                    <path d="M82.1860017,37.227627 C83.3264183,37.227627 84.0227475,37.9131992 84.2678838,38.9415573 L85.863046,38.9415573 C85.5077761,36.9602539 84.0866961,35.8804779 82.1860017,35.8804779 C81.1703083,35.8645334 80.1916441,36.2481836 79.4752916,36.9431146 C78.4627722,37.9200549 78.4769776,39.023826 78.4769776,40.94 C78.4769776,42.856174 78.4769776,43.9599451 79.4752916,44.9368854 C80.1916441,45.6318164 81.1703083,46.0154666 82.1860017,45.9995221 C84.0511691,45.9995221 85.5148815,44.9231739 85.863046,42.9384427 L84.2820946,42.9384427 C84.0369583,43.9462337 83.3264183,44.652373 82.1860017,44.652373 C81.6137356,44.6649689 81.0617453,44.4477104 80.6618934,44.0524974 C80.15741,43.521179 80.0401709,42.9487263 80.0401709,40.9674229 C80.0401709,38.9861195 80.15741,38.3965275 80.6618934,37.8652091 C81.0549615,37.456107 81.6078398,37.2248207 82.1860017,37.227627 L82.1860017,37.227627 Z" id="Path"></path>
                    <path d="M91.2735717,35.88 L87.7095632,46 L89.2790655,46 L89.9483629,43.965531 L93.7800904,43.965531 L94.4493878,46 L96.0188902,46 L92.4582281,35.88 L91.2735717,35.88 Z M90.3867527,42.6638897 L91.8993648,38.1692138 L93.371819,42.6638897 L90.3867527,42.6638897 Z" id="Shape"></path>
                    <path d="M3.40792192,0 L0.43690107,0 C0.187643453,0.0146314025 -0.00536367923,0.227253661 0.000479928579,0.480774194 L0.000479928579,24.3489966 C-0.0109630614,24.606431 0.183596075,24.8253233 0.43690107,24.84 L3.40792192,24.84 C6.29837271,24.84 7.38606848,22.7327769 7.38606848,20.2436623 L7.38606848,4.5826987 C7.38606848,2.09358408 6.29837271,0 3.40792192,0 Z M6.51658328,20.4073301 C6.51658328,22.3577049 5.61688431,24.0830364 3.30049518,24.0830364 L1.14524615,24.0830364 C0.953892268,24.0830364 0.873322212,23.9977927 0.873322212,23.8000275 L0.873322212,1.04679204 C0.873322212,0.849026767 0.953892268,0.736505148 1.14524615,0.736505148 L3.30049518,0.736505148 C5.61688431,0.736505148 6.51658328,2.40387097 6.51658328,4.41221139 L6.51658328,20.4073301 Z" id="Shape"></path>
                    <path d="M18.4651712,24.4581084 C18.4651712,24.2023775 18.3474182,24.0898559 18.0869344,24.0898559 L13.1912661,24.0898559 C12.9878747,24.0898559 12.8986679,24.0046122 12.8986679,23.8068469 L12.8986679,11.5078929 C12.8986679,11.3101277 12.9878747,11.197606 13.1912661,11.197606 L16.5525777,11.197606 C16.8130616,11.197606 16.9557924,11.0850844 16.9557924,10.8293535 C16.9557924,10.5736225 16.8130616,10.4645106 16.5525777,10.4645106 L13.1912661,10.4645106 C12.9878747,10.4645106 12.8986679,10.379267 12.8986679,10.1815017 L12.8986679,1.04679204 C12.8986679,0.849026767 12.9878747,0.736505148 13.1912661,0.736505148 L18.0869344,0.736505148 C18.3474182,0.736505148 18.4651712,0.623983528 18.4651712,0.368252574 C18.4651712,0.11252162 18.3474182,0 18.0869344,0 L12.4669071,0 C12.2011044,0.0128763007 11.9949198,0.226572192 12.0030318,0.480774194 L12.0030318,24.3489966 C11.9962353,24.4729298 12.0413267,24.5943535 12.128355,24.6864714 C12.2153833,24.7785893 12.3371946,24.833829 12.4669071,24.84 L18.0869344,24.84 C18.3474182,24.84 18.4651712,24.7138394 18.4651712,24.4581084 Z" id="Path"></path>
                    <path d="M24.0504673,25.76 L27.3292155,25.76 C29.9866162,25.76 31.390791,24.4286622 31.390791,21.9150686 L31.390791,12.737852 C31.390791,11.1950256 30.779975,10.1237147 29.6109995,9.58979273 C30.3130869,9.10440915 30.8782672,8.23418573 30.8782672,6.6844253 L30.8782672,3.84146433 C30.8782672,1.32787079 29.4951551,3.41060513e-15 26.8728587,3.41060513e-15 L24.0645091,3.41060513e-15 C23.5147045,0.00949689906 23.0757143,0.455445834 23.0815247,0.998503365 L23.0815247,24.7614966 C23.075584,25.299284 23.5061837,25.7430489 24.0504673,25.76 L24.0504673,25.76 Z M25.0333897,10.6056312 L27.1607145,10.6056312 C29.0423087,10.6056312 29.4249463,11.4099812 29.4249463,12.6199731 L29.4249463,21.9150686 C29.4249463,23.3469502 28.7439216,23.995284 27.2168815,23.995284 L25.0333897,23.995284 L25.0333897,10.6056312 Z M28.9685895,6.7919031 C28.9685895,8.2029825 28.3051169,8.87211844 26.8623273,8.87211844 L25.0333897,8.87211844 L25.0333897,1.77165007 L26.7886082,1.77165007 C28.2980961,1.77165007 28.9685895,2.40958277 28.9685895,3.85186541 L28.9685895,6.7919031 Z" id="Shape"></path>
                    <path d="M36.0084478,25.7577301 C36.4787704,25.7920692 36.8903572,25.4328723 36.937967,24.9465271 L37.9410454,17.8745004 L41.4284143,17.8745004 C41.4585067,18.0929012 41.5186914,18.5089028 41.6357172,19.3305059 C41.8095841,20.5334437 42.0770717,22.3881174 42.4314927,24.8771935 C42.4899314,25.262433 42.7513256,25.5814012 43.1085734,25.7034064 C43.4658212,25.8254115 43.8588779,25.7299475 44.126695,25.456129 C44.2923569,25.2419784 44.3539896,24.9608118 44.2938748,24.6934594 L40.8165366,0.839236099 C40.7616197,0.354371823 40.361149,-0.00837735761 39.8903609,0.000147173076 L39.4556936,0.000147173076 C38.9773405,-0.0040294459 38.5745114,0.370060064 38.5261744,0.863502858 L35.1090209,24.665726 C35.0446521,24.9369095 35.1051625,25.2237114 35.272857,25.4422623 C35.4588786,25.6581415 35.7296965,25.7742853 36.0084478,25.7577301 L36.0084478,25.7577301 Z M39.6629965,5.12405226 L41.150896,16.103027 L38.1951585,16.103027 L39.6629965,5.12405226 Z" id="Shape"></path>
                    <path d="M48.9822247,25.7582602 C49.526292,25.7487639 49.9607013,25.3028451 49.9548902,24.7598243 L49.9548902,16.5227279 L52.2267588,16.5227279 C53.7204951,16.5227279 54.311042,17.0947485 54.311042,18.564668 L54.311042,23.9693958 C54.311042,25.1065034 54.9328531,25.7582602 56.0166804,25.7582602 L56.325849,25.7582602 C56.6460571,25.7785831 56.9510518,25.6196331 57.1173255,25.3457768 C57.2835991,25.0719206 57.2835991,24.728538 57.1173255,24.4546818 C56.9510518,24.1808256 56.6460571,24.0218755 56.325849,24.0421984 L56.273742,24.0421984 C56.2611108,23.9829607 56.2552836,23.9224796 56.2563729,23.8619253 L56.2563729,18.6617382 C56.2563729,17.0219458 55.7179331,15.9645745 54.6167368,15.4514893 C55.4817144,14.8725352 55.91594,13.9018336 55.91594,12.5532517 L55.91594,3.81347055 C55.91594,1.35204865 54.488206,3.41060513e-15 51.8967473,3.41060513e-15 L48.9822247,3.41060513e-15 C48.4381574,0.00949625765 48.0037481,0.455415074 48.0095016,0.998435927 L48.0095016,24.7598243 C48.0037481,25.3028451 48.4381574,25.7487639 48.9822247,25.7582602 L48.9822247,25.7582602 Z M53.9323972,12.6849898 C53.9323972,14.1167746 53.2689004,14.7650646 51.7751641,14.7650646 L49.9548902,14.7650646 L49.9548902,1.77153041 L51.7751641,1.77153041 C53.2689004,1.77153041 53.9323972,2.40942003 53.9323972,3.85160526 L53.9323972,12.6849898 Z" id="Shape"></path>
                    <path d="M60.984586,25.7582602 C61.5286533,25.7487639 61.9630626,25.3028451 61.9572514,24.7598243 L61.9572514,16.5227279 L64.2291201,16.5227279 C65.7193826,16.5227279 66.3134033,17.0947485 66.3134033,18.564668 L66.3134033,23.9693958 C66.3134033,25.1065034 66.9352144,25.7582602 68.0190416,25.7582602 L68.3282103,25.7582602 C68.6484184,25.7785831 68.9534131,25.6196331 69.1196867,25.3457768 C69.2859604,25.0719206 69.2859604,24.728538 69.1196867,24.4546818 C68.9534131,24.1808256 68.6484184,24.0218755 68.3282103,24.0421984 L68.2761032,24.0421984 C68.2637509,23.9817472 68.257928,23.9201486 68.2587342,23.8584585 L68.2587342,18.6582714 C68.2587342,17.018479 67.7202944,15.9611077 66.6190981,15.4480225 C67.4852336,14.870224 67.9183013,13.9041448 67.9183013,12.5497849 L67.9183013,3.81347055 C67.9183013,1.35204865 66.4905673,3.41060513e-15 63.8991086,3.41060513e-15 L60.984586,3.41060513e-15 C60.4405187,0.00949625765 60.0061094,0.455415074 60.0118629,0.998435927 L60.0118629,24.7598243 C60.0061094,25.3028451 60.4405187,25.7487639 60.984586,25.7582602 L60.984586,25.7582602 Z M65.9347585,12.6849898 C65.9347585,14.1167746 65.2712617,14.7650646 63.7775254,14.7650646 L61.9572514,14.7650646 L61.9572514,1.77153041 L63.7775254,1.77153041 C65.2712617,1.77153041 65.9347585,2.40942003 65.9347585,3.85160526 L65.9347585,12.6849898 Z" id="Shape"></path>
                    <path d="M72.9374262,24.84 C73.4538268,24.8308324 73.8661457,24.4003467 73.8606301,23.8761196 L73.8606301,0.937105901 C73.8606301,0.419556603 73.4472976,0 72.9374262,0 C72.4275548,0 72.0142223,0.419556603 72.0142223,0.937105901 L72.0142223,23.8761196 C72.0087067,24.4003467 72.4210256,24.8308324 72.9374262,24.84 L72.9374262,24.84 Z" id="Path"></path>
                    <path d="M82.7263053,25.76 C84.5751474,25.76 86.7850652,24.9471761 86.7850652,21.0682572 L86.7850652,16.5274185 C86.7986522,16.2635082 86.7000079,16.0065226 86.5146613,15.8229683 C86.3293146,15.639414 86.0754816,15.547331 85.818853,15.5705499 C85.5696186,15.5556207 85.3263783,15.6526332 85.152429,15.8363425 C84.9784796,16.0200518 84.891024,16.2722898 84.9128201,16.5274185 L84.9128201,21.1539981 C84.9128201,23.1809133 84.2775941,24.0074557 82.7263053,24.0074557 C80.6568058,24.0074557 80.3492227,22.042274 80.3492227,20.8727679 L80.3492227,4.88723206 C80.3492227,3.717726 80.6568058,1.75254427 82.7263053,1.75254427 C84.3177136,1.75254427 84.8860738,2.50020503 84.8860738,4.6094315 L84.8860738,8.23112768 C84.8795801,8.49507716 84.9789382,8.75020051 85.1609379,8.93690041 C85.3429376,9.12360031 85.5916382,9.22552439 85.8489427,9.218863 C86.3725694,9.20946852 86.790658,8.76832878 86.7850652,8.23112768 L86.7850652,4.69174278 C86.7850652,2.67854613 86.3638101,0 82.7263053,0 C80.0516694,0 78.4769776,1.88972973 78.4769776,5.05528425 L78.4769776,20.7047158 C78.4769776,23.8702703 80.0650426,25.76 82.7263053,25.76 Z" id="Path"></path>
                    <path d="M96.2115307,0.83870256 C96.1551725,0.354890988 95.7557721,-0.00685924475 95.285759,9.86860687e-05 L94.8512813,9.86860687e-05 C94.376372,-0.000377387354 93.9786521,0.372966205 93.9321939,0.862956759 L90.5031624,24.6528612 C90.440785,24.9244485 90.5024139,25.2106869 90.6702692,25.4289955 C90.8556206,25.6456224 91.1267407,25.7618864 91.4055391,25.7443001 C91.8756566,25.7786214 92.2870638,25.4196104 92.3346529,24.9335169 L93.3372937,17.8651503 L96.8231416,17.8651503 L97.0203276,19.2511045 C97.1941187,20.449955 97.4648317,22.3313878 97.8257824,24.8676841 C97.8562953,25.3867718 98.2839582,25.7837966 98.7849754,25.7581597 C99.0638585,25.7762728 99.3351929,25.6599169 99.5202453,25.4428551 C99.686094,25.2289452 99.7488425,24.9483238 99.6906943,24.6805802 L96.2115307,0.83870256 Z M93.591296,16.0841991 L95.0584937,5.11437137 L96.5457443,16.087664 L93.591296,16.0841991 Z" id="Shape"></path>
                    <path d="M109.235281,12.6896552 C106.866234,10.3129171 106.086808,9.40406337 105.854347,9.06109972 C105.537062,8.56703182 105.375084,7.98871059 105.389426,7.40115564 L105.389426,3.8583411 C105.389426,2.48648649 106.134667,1.75254427 107.48499,1.75254427 C109.033587,1.75254427 109.638668,2.35958993 109.638668,3.91321528 L109.638668,7.47660764 C109.62851,7.72422564 109.71808,7.96553154 109.887202,8.14616999 C110.056324,8.32680844 110.290775,8.43158775 110.537744,8.43690587 C110.793172,8.45066198 111.042049,8.35291814 111.220284,8.16884499 C111.39852,7.98477185 111.488694,7.73235926 111.467586,7.47660764 L111.467586,3.96808947 C111.467586,1.37185461 110.089915,0 107.48499,0 C105.027061,0 103.502393,1.47817335 103.502393,3.8583411 L103.502393,7.42173346 C103.479967,8.34337749 103.716929,9.25270104 104.186101,10.0454054 C104.43414,10.4312361 104.705869,10.8012085 104.999713,11.153178 C105.317637,11.530438 106.278246,12.5250326 107.949911,14.1986952 C109.433556,15.6322833 109.816432,16.3696552 109.816432,17.7826654 L109.816432,21.6547251 C109.816432,22.532712 109.532694,24.0074557 107.611476,24.0074557 C106.073134,24.0074557 105.290289,23.2049208 105.290289,21.6067102 L105.290289,17.2545014 C105.311386,16.9033485 105.136635,16.5694228 104.836541,16.3874498 C104.536447,16.2054769 104.160516,16.2054769 103.860422,16.3874498 C103.560328,16.5694228 103.385577,16.9033485 103.406674,17.2545014 L103.406674,21.6238583 C103.406674,24.2132339 104.975783,25.76 107.611476,25.76 C110.151449,25.76 111.713721,24.165219 111.713721,21.5964212 L111.713721,17.6969245 C111.744488,15.635713 110.513814,14.0992358 109.235281,12.6896552 Z" id="Path"></path>
                </g>
            </g>
        </g>
    </g>
</svg>