<?xml version="1.0" encoding="UTF-8"?>
<svg width="21px" height="21px" viewBox="0 0 21 21" version="1.1" xmlns="http://www.w3.org/2000/svg" xmlns:xlink="http://www.w3.org/1999/xlink">
    <title>Group 44</title>
    <defs>
        <polygon id="path-1" points="0 0.0005 16.4006 0.0005 16.4006 16.401 0 16.401"></polygon>
    </defs>
    <g id="Symbols" stroke="none" stroke-width="1" fill="none" fill-rule="evenodd">
        <g id="Group-44">
            <g id="Group-6" transform="translate(2.000000, 2.000000)">
                <mask id="mask-2" fill="white">
                    <use xlink:href="#path-1"></use>
                </mask>
                <g id="Clip-2"></g>
                <path d="M8.2006,15.3855 C4.2326,15.3855 1.0156,12.1685 1.0156,8.2005 C1.0156,4.2325 4.2326,1.0155 8.2006,1.0155 C12.1686,1.0155 15.3856,4.2325 15.3856,8.2005 C15.3816,12.1665 12.1666,15.3815 8.2006,15.3855 M8.2006,0.0005 C3.6716,0.0005 -0.0004,3.6715 -0.0004,8.2005 C-0.0004,12.7295 3.6716,16.4015 8.2006,16.4015 C12.7296,16.4015 16.4006,12.7295 16.4006,8.2005 C16.3966,3.6735 12.7276,0.0045 8.2006,0.0005" id="Fill-1" fill="#FFFFFF" mask="url(#mask-2)"></path>
                <path d="M11.8661,7.8977 L8.6731,7.8977 L8.6731,4.1727 C8.6731,3.8787 8.4351,3.6407 8.1411,3.6407 C7.8471,3.6407 7.6091,3.8787 7.6091,4.1727 L7.6091,8.4297 C7.6091,8.7237 7.8471,8.9617 8.1411,8.9617 L11.8661,8.9617 C12.1601,8.9617 12.3981,8.7237 12.3981,8.4297 C12.3981,8.1357 12.1601,7.8977 11.8661,7.8977" id="Fill-4" fill="#FFFFFF" mask="url(#mask-2)"></path>
            </g>
            <rect id="Rectangle-Copy" x="0" y="0" width="21" height="21"></rect>
        </g>
    </g>
</svg>