<?xml version="1.0" encoding="UTF-8"?>
<svg width="21px" height="21px" viewBox="0 0 21 21" version="1.1" xmlns="http://www.w3.org/2000/svg" xmlns:xlink="http://www.w3.org/1999/xlink">
    <title>Group 30</title>
    <defs>
        <path d="M7.1620641,0.000555852993 C8.30186592,0.00276021127 8.54897057,0.0120982394 9.13540426,0.0386338028 C9.82394326,0.0698521127 10.2940638,0.178429577 10.7055461,0.337267606 C11.1308582,0.501415493 11.4916312,0.720950704 11.8512057,1.07799296 C12.2108723,1.43512676 12.4320567,1.79335915 12.5972766,2.21567606 C12.7572411,2.62426056 12.8665887,3.09116197 12.8979362,3.77476056 C12.9247383,4.35706444 12.9341543,4.60242891 12.9363761,5.73420395 L12.9363761,7.11162703 C12.9341543,8.24340208 12.9247383,8.48876655 12.8979362,9.07107042 C12.8665887,9.75476056 12.7572411,10.2215704 12.5972766,10.6301549 C12.4320567,11.0525634 12.2108723,11.4107042 11.8512057,11.7677465 C11.4916312,12.1247887 11.1308582,12.344507 10.7055461,12.5086549 C10.2940638,12.6674014 9.82394326,12.7759789 9.13540426,12.8071972 C8.54897057,12.8337327 8.30186592,12.8430046 7.1620641,12.8451891 L5.77487207,12.8451891 C4.63507025,12.8430046 4.3879656,12.8337327 3.80153191,12.8071972 C3.11299291,12.7759789 2.64278014,12.6674014 2.23139007,12.5086549 C1.80598582,12.344507 1.44530496,12.1247887 1.0856383,11.7677465 C0.72606383,11.4107042 0.504879433,11.0525634 0.339567376,10.6301549 C0.179695035,10.2215704 0.0703475177,9.75476056 0.0389078014,9.07107042 C0.0121840426,8.48876655 0.00277978723,8.24340208 0.000559795213,7.11162703 L0.000559795213,5.73420395 C0.00277978723,4.60242891 0.0121840426,4.35706444 0.0389078014,3.77476056 C0.0703475177,3.09116197 0.179695035,2.62426056 0.339567376,2.21567606 C0.504879433,1.79335915 0.72606383,1.43512676 1.0856383,1.07799296 C1.44530496,0.720950704 1.80598582,0.501415493 2.23139007,0.337267606 C2.64278014,0.178429577 3.11299291,0.0698521127 3.80153191,0.0386338028 C4.3879656,0.0120982394 4.63507025,0.00276021127 5.77487207,0.000555852993 Z M7.14966522,1.1578652 L5.78727095,1.1578652 C4.66919179,1.15986412 4.43441064,1.16849401 3.8546383,1.19471831 C3.224,1.22328169 2.88148227,1.32792254 2.65356738,1.41590141 C2.35161702,1.53235211 2.13614894,1.67159859 1.90980142,1.89635211 C1.6834539,2.12110563 1.54331206,2.33505634 1.42594326,2.63488028 C1.33734043,2.86119014 1.23195745,3.20129577 1.20319149,3.82758451 C1.17678121,4.40319613 1.16802349,4.63631222 1.16599041,5.74651583 L1.16599041,7.09931021 C1.16802349,8.20949748 1.17678121,8.44257077 1.20319149,9.01833803 C1.23195745,9.64453521 1.33734043,9.9845493 1.42594326,10.2109507 C1.54331206,10.5107746 1.6834539,10.7246338 1.90980142,10.9494789 C2.13614894,11.1742324 2.35161702,11.3133873 2.65356738,11.4299296 C2.88148227,11.5179085 3.224,11.6224577 3.8546383,11.6511127 C4.43433227,11.6774148 4.66910167,11.6860564 5.78723569,11.688057 L7.14970048,11.688057 C8.2678345,11.6860564 8.5026039,11.6774148 9.08229787,11.6511127 C9.71293617,11.6224577 10.0554539,11.5179085 10.2833688,11.4299296 C10.5853191,11.3133873 10.8007872,11.1742324 11.0271348,10.9494789 C11.2534823,10.7246338 11.3936241,10.5107746 11.5109929,10.2109507 C11.5995035,9.9845493 11.7048865,9.64453521 11.7336525,9.01833803 C11.7616993,8.40870211 11.769881,8.18326289 11.7712369,6.89404154 L11.7712369,5.95178698 C11.769881,4.66255162 11.7616993,4.43704648 11.7336525,3.82749296 C11.7048865,3.20129577 11.5995035,2.86119014 11.5109929,2.63488028 C11.3936241,2.33505634 11.2534823,2.12110563 11.0271348,1.89635211 C10.8007872,1.67159859 10.5853191,1.53235211 10.2833688,1.41590141 C10.0554539,1.32792254 9.71293617,1.22328169 9.08229787,1.19471831 C8.50252553,1.16849401 8.26774438,1.15986412 7.14966522,1.1578652 Z M6.50000922,2.90850563 C8.43299004,2.90850563 10.0000092,4.47552481 10.0000092,6.40850563 C10.0000092,8.34148645 8.43299004,9.90850563 6.50000922,9.90850563 C4.5670284,9.90850563 3.00000922,8.34148645 3.00000922,6.40850563 C3.00000922,4.47552481 4.5670284,2.90850563 6.50000922,2.90850563 Z M6.50000922,4.13666785 C5.24522808,4.13666785 4.22807428,5.1537245 4.22807428,6.40850563 C4.22807428,7.66318962 5.24522808,8.68044057 6.50000922,8.68044057 C7.75479036,8.68044057 8.77194416,7.66318962 8.77194416,6.40850563 C8.77194416,5.1537245 7.75479036,4.13666785 6.50000922,4.13666785 Z M10.0000092,1.90850563 C10.5522126,1.90850563 11.0000092,2.35621009 11.0000092,2.90844624 C11.0000092,3.46080117 10.5522126,3.90850563 10.0000092,3.90850563 C9.44780587,3.90850563 9.00000922,3.46080117 9.00000922,2.90844624 C9.00000922,2.35621009 9.44780587,1.90850563 10.0000092,1.90850563 Z" id="path-1"></path>
    </defs>
    <g id="Home-" stroke="none" stroke-width="1" fill="none" fill-rule="evenodd">
        <g id="Group-30">
            <rect id="Rectangle-Copy" x="0" y="0" width="21" height="21"></rect>
            <g id="COLOR/primary/black/pressed-Copy" transform="translate(4.000000, 4.000000)">
                <mask id="mask-2" fill="white">
                    <use xlink:href="#path-1"></use>
                </mask>
                <use id="Mask" fill="#000000" xlink:href="#path-1"></use>
                <g id="Group" mask="url(#mask-2)">
                    <g transform="translate(-4.000000, -4.000000)" id="COLOR/primary/black/pressed">
                        <rect id="Rectangle" fill="#FFFFFF" x="0" y="0" width="21" height="21"></rect>
                    </g>
                </g>
            </g>
        </g>
    </g>
</svg>