<?xml version="1.0" encoding="UTF-8"?>
<svg width="21px" height="21px" viewBox="0 0 21 21" version="1.1" xmlns="http://www.w3.org/2000/svg" xmlns:xlink="http://www.w3.org/1999/xlink">
    <title>Group 34</title>
    <defs>
        <path d="M0,3.389 L1.06,3.389 L1.06,2.36 C1.06,1.906 1.071,1.205 1.401,0.772 C1.748,0.313 2.225,2.27373675e-13 3.045,2.27373675e-13 C4.381,2.27373675e-13 4.944,0.191 4.944,0.191 L4.679,1.76 C4.679,1.76 4.238,1.633 3.826,1.633 C3.414,1.633 3.045,1.781 3.045,2.193 L3.045,3.389 L4.734,3.389 L4.617,4.922 L3.045,4.922 L3.045,10.247 L1.06,10.247 L1.06,4.922 L0,4.922 L0,3.389 Z" id="path-1"></path>
    </defs>
    <g id="Home-" stroke="none" stroke-width="1" fill="none" fill-rule="evenodd">
        <g id="Group-34">
            <rect id="Rectangle-Copy" x="0" y="0" width="21" height="21"></rect>
            <g id="COLOR/primary/black/pressed-Copy" transform="translate(8.000000, 5.000000)">
                <mask id="mask-2" fill="white">
                    <use xlink:href="#path-1"></use>
                </mask>
                <use id="Mask" fill="#000000" xlink:href="#path-1"></use>
                <g id="Group" mask="url(#mask-2)">
                    <g transform="translate(-8.000000, -5.000000)" id="COLOR/primary/black/pressed">
                        <rect id="Rectangle" fill="#FFFFFF" x="0" y="0" width="21" height="21"></rect>
                    </g>
                </g>
            </g>
        </g>
    </g>
</svg>