<?xml version="1.0" encoding="UTF-8"?>
<svg width="21px" height="21px" viewBox="0 0 21 21" version="1.1" xmlns="http://www.w3.org/2000/svg" xmlns:xlink="http://www.w3.org/1999/xlink">
    <title>Group 30</title>
    <defs>
        <polygon id="path-1" points="0 0.0005 15.396 0.0005 15.396 15.3685 0 15.3685"></polygon>
    </defs>
    <g id="Home-" stroke="none" stroke-width="1" fill="none" fill-rule="evenodd">
        <g id="Group-30">
            <g id="Group-3-Copy" transform="translate(3.000000, 3.000000)">
                <mask id="mask-2" fill="white">
                    <use xlink:href="#path-1"></use>
                </mask>
                <g id="Clip-2"></g>
                <path d="M3.7782,0.9818 C4.2262,1.4298 5.9712,3.2318 5.9742,3.2318 C5.9862,3.2488 6.2432,3.6718 5.6542,4.2618 C4.9752,4.8838 4.6362,5.2778 4.6292,5.2868 C4.4872,5.4278 4.2782,5.7948 4.4942,6.1728 C5.4442,7.8948 7.5982,10.0478 9.1942,10.8738 C9.6612,11.1398 10.0572,10.8178 10.0822,10.7958 L11.1632,9.7148 C11.6972,9.1308 12.1132,9.3788 12.1192,9.3798 C12.1372,9.3978 13.9362,11.1408 14.3822,11.6418 C14.7392,12.0438 14.5312,12.5268 14.4862,12.6198 L12.8132,14.2928 C10.6462,15.3378 7.1212,13.2388 4.5812,10.6858 C2.0902,8.1818 0.0452,4.7178 1.0762,2.6118 L2.8022,0.8858 C2.9032,0.8458 3.3892,0.6808 3.7782,0.9818 M14.9672,11.0818 C14.3702,10.3758 13.5192,9.5678 12.6882,8.8008 L12.6522,8.7678 L12.6032,8.7678 L12.5562,8.7308 C11.8562,8.2858 11.0562,8.6748 10.5792,9.1518 C10.2682,9.5148 9.9542,9.8328 9.5982,10.1438 L9.5952,10.1428 C8.0462,9.3678 6.0092,7.3318 5.2312,5.7818 C5.5632,5.5008 5.8992,5.1648 6.2242,4.8398 C6.8462,4.2178 7.0132,3.4388 6.6572,2.8438 L6.6572,2.7708 L6.5682,2.6808 C5.8002,1.8498 4.9932,0.9988 4.2892,0.4018 C3.7762,-0.0462 2.9932,-0.1292 2.4142,0.2008 L2.3402,0.2008 L0.3732,2.1678 L0.3502,2.1998 C-0.8828,4.6948 1.3262,8.5718 4.0622,11.3078 C6.2632,13.5088 9.2042,15.3688 11.5682,15.3688 C12.1422,15.3688 12.6822,15.2588 13.1692,15.0188 L15.1292,13.1238 L15.2092,12.9818 C15.5312,12.4008 15.4292,11.6008 14.9672,11.0818" id="Fill-1" fill="#FFFFFF" mask="url(#mask-2)"></path>
            </g>
            <rect id="Rectangle-Copy" x="0" y="0" width="21" height="21"></rect>
        </g>
    </g>
</svg>