<?xml version="1.0" encoding="UTF-8"?>
<svg width="21px" height="21px" viewBox="0 0 21 21" version="1.1" xmlns="http://www.w3.org/2000/svg" xmlns:xlink="http://www.w3.org/1999/xlink">
    <title>Group 34</title>
    <defs>
        <polygon id="path-1" points="0.0005 -0.0001 15.9365 -0.0001 15.9365 11.9526 0.0005 11.9526"></polygon>
    </defs>
    <g id="Home-" stroke="none" stroke-width="1" fill="none" fill-rule="evenodd">
        <g id="Group-34">
            <g id="Group-3-Copy" transform="translate(3.000000, 5.000000)">
                <mask id="mask-2" fill="white">
                    <use xlink:href="#path-1"></use>
                </mask>
                <g id="Clip-2"></g>
                <path d="M15.0515,10.8459 C15.0515,10.9569 14.9635,11.0669 14.8305,11.0669 L1.1065,11.0669 C0.9965,11.0669 0.8855,10.9789 0.8855,10.8459 L0.8855,1.4829 L7.2595,7.5259 C7.4595,7.7029 7.7025,7.7909 7.9465,7.7909 C8.1895,7.7909 8.4555,7.7029 8.6545,7.5259 L15.0515,1.4829 L15.0515,10.8459 Z M14.3875,0.8859 L8.0795,6.8399 C8.0125,6.9059 7.9245,6.9059 7.8575,6.8399 L1.5495,0.8859 L14.3875,0.8859 Z M15.9365,1.1069 C15.9365,0.5089 15.4495,-0.0001 14.8305,-0.0001 L1.1065,-0.0001 C0.5095,-0.0001 0.0005,0.4869 0.0005,1.1069 L0.0005,10.8459 C0.0005,11.4439 0.4875,11.9529 1.1065,11.9529 L14.8305,11.9529 C15.4275,11.9529 15.9365,11.4659 15.9365,10.8459 L15.9365,1.1069 Z" id="Fill-1" fill="#FFFFFF" mask="url(#mask-2)"></path>
            </g>
            <rect id="Rectangle-Copy" x="0" y="0" width="21" height="21"></rect>
        </g>
    </g>
</svg>