<?xml version="1.0" encoding="UTF-8"?>
<svg width="21px" height="21px" viewBox="0 0 21 21" version="1.1" xmlns="http://www.w3.org/2000/svg" xmlns:xlink="http://www.w3.org/1999/xlink">
    <title>Group 44</title>
    <defs>
        <path d="M9.86044358,0.75 C10.5993018,0.75 11.2985126,1.01980096 11.8515997,1.51489376 C12.2372261,1.48319539 12.6396736,1.34812274 13.0188491,1.06730975 C13.1802339,0.946881481 13.3931741,0.926901449 13.5736893,1.01461353 C13.7511333,1.10053238 13.868518,1.2770648 13.8829436,1.47583405 C13.8905191,1.58417216 13.8770594,1.70780498 13.837324,1.84480769 L13.7886359,1.98619575 L13.8677323,2.00496134 L13.9440737,2.03592278 L14.0162756,2.07909775 L14.0914245,2.14323907 C14.2278194,2.28276051 14.2827677,2.48786695 14.2304227,2.68186307 C14.1697803,2.90558082 13.92623,3.26204927 13.4134739,3.79810604 L13.2668919,3.94879113 L12.9598979,4.25108609 C12.9552161,5.34937462 12.7250421,6.66219606 12.1136747,7.95187437 C11.1475056,9.99000632 9.42586181,11.4662003 6.79126563,12.1027947 C6.45506187,12.1780559 5.89281274,12.25 5.20143861,12.25 C3.63977971,12.25 2.1609548,11.8657558 0.964056841,10.9345721 C0.765377229,10.7800955 0.696179439,10.5084754 0.79404402,10.2751804 C0.893546497,10.0391938 1.14090667,9.90164594 1.39858207,9.94894257 C1.43421437,9.9566354 1.50683101,9.96644673 1.60207538,9.97514773 L1.81848061,9.99011261 L2.06970359,9.99637649 C2.68935996,9.99637649 3.2653804,9.89180584 3.75600693,9.6570643 C3.04656614,9.31905384 2.49033999,8.71270444 2.20934966,7.77482116 C2.16613058,7.63036095 2.18302306,7.47596155 2.25268795,7.34640457 C1.64568927,6.77819435 1.29381929,5.9887841 1.31004162,4.95853769 C1.31315346,4.7572978 1.42330686,4.57297865 1.59764956,4.4781906 C1.17258053,3.55122911 1.16232967,2.53423332 1.71542256,1.5558261 C1.80375728,1.39976727 1.96119934,1.29650573 2.1387132,1.2800227 C2.31796588,1.26352907 2.49195934,1.33784867 2.60557688,1.47741076 L2.74175336,1.63180726 L2.80822027,1.703019 L2.9671752,1.86679609 C3.25620216,2.15717996 3.58421215,2.44808262 3.94445373,2.7201454 C4.87299478,3.42140109 5.84512727,3.87365397 6.81841674,3.96728916 L6.81750473,3.88953524 L6.82232346,3.71179188 C6.9118729,2.06433396 8.23830775,0.75 9.86044358,0.75 Z M9.86076222,1.86008407 C8.78558794,1.86008407 7.90706827,2.76902447 7.90706827,3.88988695 C7.90706827,4.06225412 7.92770434,4.23320771 7.96843596,4.39770828 C8.00750966,4.55621159 7.97602091,4.72455385 7.88224535,4.8574515 C7.78684506,4.99266666 7.635987,5.07756163 7.47156842,5.08727685 C5.56618776,5.19828556 3.82021327,4.24152746 2.39291633,2.85248521 C2.25625482,3.68916348 2.67780416,4.40703801 3.20879226,4.87427582 C3.36876213,5.0153815 3.4337661,5.23799397 3.37656371,5.44461763 C3.31875883,5.65337764 3.14615322,5.80978786 2.93315562,5.84271984 C2.80221367,5.86265622 2.66735336,5.86185341 2.53136031,5.84324221 C2.7830285,6.55653413 3.3438523,6.91548338 3.87828463,7.03473951 C4.10865581,7.08614009 4.27955449,7.28190657 4.30407542,7.51850904 C4.32847724,7.75396215 4.20413965,7.98053345 3.99133885,8.08081881 C3.8844466,8.1311553 3.7626423,8.16831219 3.63046191,8.19202336 C4.01730329,8.67689326 4.54388705,8.85184787 4.98667723,8.85184787 C5.20384097,8.85184787 5.39986188,8.98309428 5.48651803,9.18420471 C5.57176903,9.38252791 5.53695354,9.61314252 5.39531395,9.77578436 C4.88136067,10.3640473 4.22485899,10.7377612 3.47425666,10.9348475 C4.02772832,11.0763832 4.6096849,11.1405094 5.20116246,11.1405094 C5.5508888,11.1405094 5.88160759,11.1175095 6.18245321,11.0792398 L6.37114735,11.0527065 L6.54951645,11.0209773 C9.0188096,10.4242322 10.5367666,9.00383608 11.3179473,7.05003777 C11.59334,6.36125746 11.7559268,5.65268682 11.829575,4.96402118 C11.8613646,4.66676471 11.8729375,4.41004156 11.873086,4.229314 L11.868343,4.0511884 C11.8572436,3.88367739 11.9209879,3.71978212 12.0426767,3.60549175 L12.1901282,3.46559684 C12.0154291,3.4250671 11.8671451,3.29752308 11.8016475,3.1214557 C11.7396569,2.95525191 11.7605308,2.7725636 11.8505211,2.62760573 L11.7648146,2.63114134 L11.6327593,2.6319678 C11.488381,2.62970598 11.351164,2.56875907 11.2504825,2.46342891 C10.8796864,2.07352262 10.387368,1.86008407 9.86076222,1.86008407 Z" id="path-1"></path>
    </defs>
    <g id="Symbols" stroke="none" stroke-width="1" fill="none" fill-rule="evenodd">
        <g id="Group-44">
            <rect id="Rectangle-Copy" x="0" y="0" width="21" height="21"></rect>
            <g id="COLOR/black-Copy" transform="translate(3.000000, 4.000000)">
                <mask id="mask-2" fill="white">
                    <use xlink:href="#path-1"></use>
                </mask>
                <use id="Mask" fill="#000000" fill-rule="nonzero" xlink:href="#path-1"></use>
                <g id="Group" mask="url(#mask-2)">
                    <g transform="translate(-3.000000, -4.000000)" id="COLOR/primary/black/pressed">
                        <rect id="Rectangle" fill="#FFFFFF" x="0" y="0" width="21" height="21"></rect>
                    </g>
                </g>
            </g>
        </g>
    </g>
</svg>